<?xml version="1.0" encoding="UTF-8"?>
<svg width="32" height="32" viewBox="0 0 32 32" fill="none" xmlns="http://www.w3.org/2000/svg">
  <!-- Modern, minimalist NC monogram -->
  <rect width="32" height="32" rx="8" fill="#059669"/>
  <!-- N -->
  <path d="M8 24V8h2.5l6 10V8h2.5v16h-2.5l-6-10v10H8z" fill="white"/>
  <!-- C -->
  <path d="M24 22.5c-1 1-2.2 1.5-3.6 1.5-1.4 0-2.6-0.5-3.6-1.5-1-1-1.5-2.2-1.5-3.6v-4.8c0-1.4 0.5-2.6 1.5-3.6 1-1 2.2-1.5 3.6-1.5 1.4 0 2.6 0.5 3.6 1.5l-1.8 1.8c-0.5-0.5-1.1-0.8-1.8-0.8-0.7 0-1.3 0.3-1.8 0.8-0.5 0.5-0.8 1.1-0.8 1.8v4.8c0 0.7 0.3 1.3 0.8 1.8 0.5 0.5 1.1 0.8 1.8 0.8 0.7 0 1.3-0.3 1.8-0.8l1.8 1.8z" fill="white"/>
</svg>
